<?xml version="1.0" encoding="UTF-8"?><svg xmlns="http://www.w3.org/2000/svg" xmlns:xlink="http://www.w3.org/1999/xlink" stroke-dasharray="none" shape-rendering="auto" font-family="'Dialog'" width="1616" text-rendering="auto" fill-opacity="1" contentScriptType="text/ecmascript" color-interpolation="auto" color-rendering="auto" preserveAspectRatio="xMidYMid meet" font-size="12" viewBox="0 0 1616 536" fill="black" stroke="black" image-rendering="auto" stroke-miterlimit="10" zoomAndPan="magnify" version="1.0" stroke-linecap="square" stroke-linejoin="miter" contentStyleType="text/css" font-style="normal" height="536" stroke-width="1" stroke-dashoffset="0" font-weight="normal" stroke-opacity="1">
<!--Generated by the Batik Graphics2D SVG Generator-->
<defs id="genericDefs"/>
<g>
<defs id="defs1">
<clipPath clipPathUnits="userSpaceOnUse" id="clipPath1">
<path d="M22 280 L218 280 L218 296 L22 296 L22 280 Z"/>
</clipPath>
<clipPath clipPathUnits="userSpaceOnUse" id="clipPath2">
<path d="M-1 -1 L1617 -1 L1617 537 L-1 537 L-1 -1 Z"/>
</clipPath>
<clipPath clipPathUnits="userSpaceOnUse" id="clipPath3">
<path d="M137 280 L333 280 L333 296 L137 296 L137 280 Z"/>
</clipPath>
<clipPath clipPathUnits="userSpaceOnUse" id="clipPath4">
<path d="M64 99 L260 99 L260 115 L64 115 L64 99 Z"/>
</clipPath>
<clipPath clipPathUnits="userSpaceOnUse" id="clipPath5">
<path d="M514 99 L708 99 L708 117 L514 117 L514 99 Z"/>
</clipPath>
<clipPath clipPathUnits="userSpaceOnUse" id="clipPath6">
<path d="M338 398 L532 398 L532 416 L338 416 L338 398 Z"/>
</clipPath>
<clipPath clipPathUnits="userSpaceOnUse" id="clipPath7">
<path d="M555 401 L749 401 L749 419 L555 419 L555 401 Z"/>
</clipPath>
<clipPath clipPathUnits="userSpaceOnUse" id="clipPath8">
<path d="M927 75 L1121 75 L1121 93 L927 93 L927 75 Z"/>
</clipPath>
<clipPath clipPathUnits="userSpaceOnUse" id="clipPath9">
<path d="M1074 80 L1268 80 L1268 98 L1074 98 L1074 80 Z"/>
</clipPath>
<clipPath clipPathUnits="userSpaceOnUse" id="clipPath10">
<path d="M1238 109 L1432 109 L1432 127 L1238 127 L1238 109 Z"/>
</clipPath>
<clipPath clipPathUnits="userSpaceOnUse" id="clipPath11">
<path d="M1363 111 L1557 111 L1557 129 L1363 129 L1363 111 Z"/>
</clipPath>
<clipPath clipPathUnits="userSpaceOnUse" id="clipPath12">
<path d="M1110 234 L1304 234 L1304 252 L1110 252 L1110 234 Z"/>
</clipPath>
<clipPath clipPathUnits="userSpaceOnUse" id="clipPath13">
<path d="M1104 413 L1298 413 L1298 431 L1104 431 L1104 413 Z"/>
</clipPath>
<clipPath clipPathUnits="userSpaceOnUse" id="clipPath14">
<path d="M311 97 L505 97 L505 115 L311 115 L311 97 Z"/>
</clipPath>
</defs>
<g fill="rgb(255,203,203)" stroke-miterlimit="0" stroke-width="0" stroke="rgb(255,203,203)" stroke-linejoin="round">
<rect width="700" x="75" height="41" y="10" stroke="none"/>
</g>
<g stroke-linecap="butt">
<rect fill="none" width="699" x="75" height="40" y="10"/>
<text xml:space="preserve" x="328" y="36" stroke="none">Invalid view - remove from diagram.</text>
<rect x="195" y="330" fill="rgb(255,203,203)" width="641" height="41" stroke="none"/>
<rect x="195" y="330" fill="none" width="640" height="40" stroke-width="0.1"/>
<text xml:space="preserve" x="419" stroke-width="0.1" y="356" stroke="none">Invalid view - remove from diagram.</text>
<rect x="875" y="330" fill="rgb(255,203,203)" width="40" height="41" stroke="none" stroke-width="0.1"/>
<rect x="875" y="330" fill="none" width="39" height="40" stroke-width="0.1"/>
<text xml:space="preserve" x="798" stroke-width="0.1" y="356" stroke="none">Invalid view - remove from diagram.</text>
<rect x="795" y="10" fill="rgb(255,203,203)" width="561" height="41" stroke="none" stroke-width="0.1"/>
<rect x="795" y="10" fill="none" width="560" height="40" stroke-width="0.1"/>
<text xml:space="preserve" x="979" stroke-width="0.1" y="36" stroke="none">Invalid view - remove from diagram.</text>
<rect x="75" y="164" fill="rgb(255,203,203)" width="181" height="81" stroke="none" stroke-width="0.1"/>
<rect x="75" y="164" fill="none" width="180" height="80" stroke-width="0.1"/>
<text xml:space="preserve" x="69" stroke-width="0.1" y="210" stroke="none">Invalid view - remove from diagram.</text>
<rect x="75" y="330" fill="rgb(255,203,203)" width="100" height="41" stroke="none" stroke-width="0.1"/>
<rect x="75" y="330" fill="none" width="99" height="40" stroke-width="0.1"/>
<text xml:space="preserve" x="28" stroke-width="0.1" y="356" stroke="none">Invalid view - remove from diagram.</text>
<rect x="1015" y="330" fill="rgb(255,203,203)" width="101" height="41" stroke="none" stroke-width="0.1"/>
<rect x="1015" y="330" fill="none" width="100" height="40" stroke-width="0.1"/>
<text xml:space="preserve" x="969" stroke-width="0.1" y="356" stroke="none">Invalid view - remove from diagram.</text>
</g>
<g fill="rgb(255,203,203)" stroke-width="0.1" font-family="'Segoe UI'" stroke-linecap="butt" stroke="rgb(255,203,203)">
<rect width="40" x="547" height="82" y="166" stroke="none"/>
<rect x="547" y="166" fill="none" width="39" height="81" stroke="black"/>
<text fill="black" xml:space="preserve" x="470" y="212" stroke="none">Invalid view - remove from diagram.</text>
<rect width="40" x="389" height="40" y="443" stroke="none"/>
<rect x="389" y="443" fill="none" width="39" height="39" stroke="black"/>
<text fill="black" xml:space="preserve" x="312" y="468" stroke="none">Invalid view - remove from diagram.</text>
<rect width="40" x="662" height="40" y="451" stroke="none"/>
<rect x="662" y="451" fill="none" width="39" height="39" stroke="black"/>
<text fill="black" xml:space="preserve" x="585" y="476" stroke="none">Invalid view - remove from diagram.</text>
<rect width="40" x="988" height="40" y="118" stroke="none"/>
<rect x="988" y="118" fill="none" width="39" height="39" stroke="black"/>
<text fill="black" xml:space="preserve" x="911" y="143" stroke="none">Invalid view - remove from diagram.</text>
<rect width="40" x="1159" height="40" y="127" stroke="none"/>
<rect x="1159" y="127" fill="none" width="39" height="39" stroke="black"/>
<text fill="black" xml:space="preserve" x="1082" y="152" stroke="none">Invalid view - remove from diagram.</text>
<rect width="40" x="1402" height="40" y="186" stroke="none"/>
<rect x="1402" y="186" fill="none" width="39" height="39" stroke="black"/>
<text fill="black" xml:space="preserve" x="1325" y="211" stroke="none">Invalid view - remove from diagram.</text>
<rect width="40" x="1566" height="40" y="189" stroke="none"/>
<rect x="1566" y="189" fill="none" width="39" height="39" stroke="black"/>
<text fill="black" xml:space="preserve" x="1489" y="214" stroke="none">Invalid view - remove from diagram.</text>
<rect width="40" x="1227" height="40" y="320" stroke="none"/>
<rect x="1227" y="320" fill="none" width="39" height="39" stroke="black"/>
<text x="1151" y="345" fill="black" font-style="italic" stroke="none" xml:space="preserve">Invalid view - remove from diagram.</text>
<rect width="40" x="1131" height="40" y="486" stroke="none"/>
<rect x="1131" y="486" fill="none" width="39" height="39" stroke="black"/>
<text fill="black" xml:space="preserve" x="1054" y="511" stroke="none">Invalid view - remove from diagram.</text>
<rect width="40" x="359" height="40" y="160" stroke="none"/>
<rect x="359" y="160" fill="none" width="39" height="39" stroke="black"/>
<text fill="black" xml:space="preserve" x="282" y="185" stroke="none">Invalid view - remove from diagram.</text>
</g>
<g fill="red" stroke-width="1.1" stroke-linecap="butt" stroke="red">
<line y2="330" fill="none" x1="120" x2="120" y1="245"/>
<text xml:space="preserve" x="23" y="294" clip-path="url(#clipPath1)" stroke="none">Invalid view - remove from diagram.</text>
<line clip-path="url(#clipPath2)" fill="none" x1="235" x2="235" y1="245" y2="330"/>
<text xml:space="preserve" x="138" y="294" clip-path="url(#clipPath3)" stroke="none">Invalid view - remove from diagram.</text>
<line clip-path="url(#clipPath2)" fill="none" x1="162" x2="162" y1="164" y2="51"/>
<text xml:space="preserve" x="65" y="113" clip-path="url(#clipPath4)" stroke="none">Invalid view - remove from diagram.</text>
<line clip-path="url(#clipPath2)" fill="none" x1="554" x2="666" y1="166" y2="51"/>
<text x="515" y="113" clip-path="url(#clipPath5)" font-family="'Segoe UI'" stroke="none" xml:space="preserve">Invalid view - remove from diagram.</text>
<line clip-path="url(#clipPath2)" fill="none" x1="415" x2="456" y1="443" y2="371"/>
<text x="339" y="412" clip-path="url(#clipPath6)" font-family="'Segoe UI'" stroke="none" xml:space="preserve">Invalid view - remove from diagram.</text>
<line clip-path="url(#clipPath2)" fill="none" x1="666" x2="638" y1="451" y2="371"/>
<text x="556" y="415" clip-path="url(#clipPath7)" font-family="'Segoe UI'" stroke="none" xml:space="preserve">Invalid view - remove from diagram.</text>
<line clip-path="url(#clipPath2)" fill="none" x1="1009" x2="1039" y1="118" y2="51"/>
<text x="928" y="89" clip-path="url(#clipPath8)" font-family="'Segoe UI'" stroke="none" xml:space="preserve">Invalid view - remove from diagram.</text>
<line clip-path="url(#clipPath2)" fill="none" x1="1171" x2="1171" y1="127" y2="51"/>
<text x="1075" y="94" clip-path="url(#clipPath9)" font-family="'Segoe UI'" stroke="none" xml:space="preserve">Invalid view - remove from diagram.</text>
<line clip-path="url(#clipPath2)" fill="none" x1="1402" x2="1269" y1="186" y2="51"/>
<text x="1239" y="123" clip-path="url(#clipPath10)" font-family="'Segoe UI'" stroke="none" xml:space="preserve">Invalid view - remove from diagram.</text>
<line clip-path="url(#clipPath2)" fill="none" x1="1574" x2="1348" y1="189" y2="51"/>
<text x="1364" y="125" clip-path="url(#clipPath11)" font-family="'Segoe UI'" stroke="none" xml:space="preserve">Invalid view - remove from diagram.</text>
<line clip-path="url(#clipPath2)" fill="none" x1="1177" x2="1237" y1="167" y2="320"/>
<text x="1111" y="248" clip-path="url(#clipPath12)" font-family="'Segoe UI'" stroke="none" xml:space="preserve">Invalid view - remove from diagram.</text>
<line clip-path="url(#clipPath2)" fill="none" x1="1163" x2="1238" y1="486" y2="360"/>
<text x="1105" y="427" clip-path="url(#clipPath13)" font-family="'Segoe UI'" stroke="none" xml:space="preserve">Invalid view - remove from diagram.</text>
<line clip-path="url(#clipPath2)" fill="none" x1="381" x2="436" y1="160" y2="51"/>
<text x="312" y="111" clip-path="url(#clipPath14)" font-family="'Segoe UI'" stroke="none" xml:space="preserve">Invalid view - remove from diagram.</text>
</g>
</g>
</svg>
