<?xml version="1.0" encoding="UTF-8"?><svg xmlns="http://www.w3.org/2000/svg" xmlns:xlink="http://www.w3.org/1999/xlink" stroke-dasharray="none" shape-rendering="auto" font-family="'Dialog'" width="641" text-rendering="auto" fill-opacity="1" contentScriptType="text/ecmascript" color-interpolation="auto" color-rendering="auto" preserveAspectRatio="xMidYMid meet" font-size="12" viewBox="0 0 641 192" fill="black" stroke="black" image-rendering="auto" stroke-miterlimit="10" zoomAndPan="magnify" version="1.0" stroke-linecap="square" stroke-linejoin="miter" contentStyleType="text/css" font-style="normal" height="192" stroke-width="1" stroke-dashoffset="0" font-weight="normal" stroke-opacity="1">
<!--Generated by the Batik Graphics2D SVG Generator-->
<defs id="genericDefs"/>
<g>
<defs id="defs1">
<clipPath clipPathUnits="userSpaceOnUse" id="clipPath1">
<path d="M225 67 L421 67 L421 83 L225 83 L225 67 Z"/>
</clipPath>
<clipPath clipPathUnits="userSpaceOnUse" id="clipPath2">
<path d="M-1 -1 L642 -1 L642 193 L-1 193 L-1 -1 Z"/>
</clipPath>
<clipPath clipPathUnits="userSpaceOnUse" id="clipPath3">
<path d="M22 67 L218 67 L218 83 L22 83 L22 67 Z"/>
</clipPath>
<clipPath clipPathUnits="userSpaceOnUse" id="clipPath4">
<path d="M423 67 L619 67 L619 83 L423 83 L423 67 Z"/>
</clipPath>
</defs>
<g fill="rgb(255,203,203)" stroke-miterlimit="0" stroke-width="0" stroke="rgb(255,203,203)" stroke-linejoin="round">
<rect width="163" x="39" height="82" y="100" stroke="none"/>
</g>
<g stroke-linecap="butt">
<rect fill="none" width="162" x="39" height="81" y="100"/>
<text xml:space="preserve" x="24" y="146" stroke="none">Invalid view - remove from diagram.</text>
<rect x="453" y="100" fill="rgb(255,203,203)" width="136" height="82" stroke="none"/>
<rect x="453" y="100" fill="none" width="135" height="81" stroke-width="0.1"/>
<text xml:space="preserve" x="424" stroke-width="0.1" y="146" stroke="none">Invalid view - remove from diagram.</text>
<rect x="246" y="100" fill="rgb(255,203,203)" width="154" height="82" stroke="none" stroke-width="0.1"/>
<rect x="246" y="100" fill="none" width="153" height="81" stroke-width="0.1"/>
<text xml:space="preserve" x="226" stroke-width="0.1" y="146" stroke="none">Invalid view - remove from diagram.</text>
<rect x="246" y="10" fill="rgb(255,203,203)" width="154" height="40" stroke="none" stroke-width="0.1"/>
<rect x="246" y="10" fill="none" width="153" height="39" stroke-width="0.1"/>
<text xml:space="preserve" x="226" stroke-width="0.1" y="35" stroke="none">Invalid view - remove from diagram.</text>
<rect x="39" y="10" fill="rgb(255,203,203)" width="163" height="40" stroke="none" stroke-width="0.1"/>
<rect x="39" y="10" fill="none" width="162" height="39" stroke-width="0.1"/>
<text xml:space="preserve" x="24" stroke-width="0.1" y="35" stroke="none">Invalid view - remove from diagram.</text>
<rect x="453" y="10" fill="rgb(255,203,203)" width="136" height="40" stroke="none" stroke-width="0.1"/>
<rect x="453" y="10" fill="none" width="135" height="39" stroke-width="0.1"/>
<text xml:space="preserve" x="424" stroke-width="0.1" y="35" stroke="none">Invalid view - remove from diagram.</text>
<line fill="none" x1="323" x2="323" y1="100" y2="50" stroke="red" stroke-width="1.1"/>
<text x="226" y="81" clip-path="url(#clipPath1)" fill="red" stroke="none" stroke-width="1.1" xml:space="preserve">Invalid view - remove from diagram.</text>
<line clip-path="url(#clipPath2)" fill="none" x1="120" x2="120" y1="100" y2="50" stroke="red" stroke-width="1.1"/>
<text x="23" y="81" clip-path="url(#clipPath3)" fill="red" stroke="none" stroke-width="1.1" xml:space="preserve">Invalid view - remove from diagram.</text>
<line clip-path="url(#clipPath2)" fill="none" x1="521" x2="521" y1="100" y2="50" stroke="red" stroke-width="1.1"/>
<text x="424" y="81" clip-path="url(#clipPath4)" fill="red" stroke="none" stroke-width="1.1" xml:space="preserve">Invalid view - remove from diagram.</text>
</g>
</g>
</svg>
