<?xml version="1.0" encoding="UTF-8"?><svg xmlns="http://www.w3.org/2000/svg" xmlns:xlink="http://www.w3.org/1999/xlink" stroke-dasharray="none" shape-rendering="auto" font-family="'Dialog'" width="1301" text-rendering="auto" fill-opacity="1" contentScriptType="text/ecmascript" color-interpolation="auto" color-rendering="auto" preserveAspectRatio="xMidYMid meet" font-size="12" viewBox="0 0 1301 322428" fill="black" stroke="black" image-rendering="auto" stroke-miterlimit="10" zoomAndPan="magnify" version="1.0" stroke-linecap="square" stroke-linejoin="miter" contentStyleType="text/css" font-style="normal" height="322428" stroke-width="1" stroke-dashoffset="0" font-weight="normal" stroke-opacity="1">
<!--Generated by the Batik Graphics2D SVG Generator-->
<defs id="genericDefs"/>
<g>
<defs id="defs1">
<clipPath clipPathUnits="userSpaceOnUse" id="clipPath1">
<path d="M921 321957 L1117 321957 L1117 321973 L921 321973 L921 321957 Z"/>
</clipPath>
<clipPath clipPathUnits="userSpaceOnUse" id="clipPath2">
<path d="M-1 -1 L1302 -1 L1302 322429 L-1 322429 L-1 -1 Z"/>
</clipPath>
<clipPath clipPathUnits="userSpaceOnUse" id="clipPath3">
<path d="M174 321957 L370 321957 L370 321973 L174 321973 L174 321957 Z"/>
</clipPath>
<clipPath clipPathUnits="userSpaceOnUse" id="clipPath4">
<path d="M168 322317 L364 322317 L364 322333 L168 322333 L168 322317 Z"/>
</clipPath>
<clipPath clipPathUnits="userSpaceOnUse" id="clipPath5">
<path d="M664 55 L860 55 L860 71 L664 71 L664 55 Z"/>
</clipPath>
<clipPath clipPathUnits="userSpaceOnUse" id="clipPath6">
<path d="M473 321956 L667 321956 L667 321974 L473 321974 L473 321956 Z"/>
</clipPath>
<clipPath clipPathUnits="userSpaceOnUse" id="clipPath7">
<path d="M353 322177 L547 322177 L547 322195 L353 322195 L353 322177 Z"/>
</clipPath>
</defs>
<g fill="rgb(255,203,203)" stroke-miterlimit="0" stroke-width="0" stroke="rgb(255,203,203)" stroke-linejoin="round">
<rect width="201" x="390" height="121" y="321985" stroke="none"/>
</g>
<g stroke-linecap="butt">
<rect fill="none" width="200" x="390" height="120" y="321985"/>
<text xml:space="preserve" x="394" y="322051" stroke="none">Invalid view - remove from diagram.</text>
<rect x="10" y="321905" fill="rgb(255,203,203)" width="440" height="41" stroke="none"/>
<rect x="10" y="321905" fill="none" width="439" height="40" stroke-width="0.1"/>
<text xml:space="preserve" x="133" stroke-width="0.1" y="321931" stroke="none">Invalid view - remove from diagram.</text>
<rect x="10" y="322265" fill="rgb(255,203,203)" width="481" height="41" stroke="none" stroke-width="0.1"/>
<rect x="10" y="322265" fill="none" width="480" height="40" stroke-width="0.1"/>
<text xml:space="preserve" x="154" stroke-width="0.1" y="322291" stroke="none">Invalid view - remove from diagram.</text>
<rect x="950" y="321985" fill="rgb(255,203,203)" width="121" height="121" stroke="none" stroke-width="0.1"/>
<rect x="950" y="321985" fill="none" width="120" height="120" stroke-width="0.1"/>
<text xml:space="preserve" x="914" stroke-width="0.1" y="322051" stroke="none">Invalid view - remove from diagram.</text>
</g>
<g fill="rgb(255,203,203)" font-style="italic" stroke-width="0.1" stroke-linecap="butt" stroke="rgb(255,203,203)">
<rect width="121" x="950" height="41" y="321905" stroke="none"/>
<rect x="950" y="321905" fill="none" width="120" height="40" stroke="black"/>
<text fill="black" xml:space="preserve" x="912" y="321931" stroke="none">Invalid view - remove from diagram.</text>
<rect width="161" x="650" height="121" y="321985" stroke="none"/>
<rect x="650" y="321985" fill="none" width="160" height="120" stroke="black"/>
<text x="634" y="322051" fill="black" font-style="normal" stroke="none" xml:space="preserve">Invalid view - remove from diagram.</text>
<rect width="201" x="170" height="121" y="321985" stroke="none"/>
<rect x="170" y="321985" fill="none" width="200" height="120" stroke="black"/>
<text x="174" y="322051" fill="black" font-style="normal" stroke="none" xml:space="preserve">Invalid view - remove from diagram.</text>
<rect width="481" x="10" height="73" y="322345" stroke="none"/>
<rect x="10" y="322345" fill="none" width="480" height="72" stroke="black"/>
<text x="154" y="322387" fill="black" font-style="normal" stroke="none" xml:space="preserve">Invalid view - remove from diagram.</text>
<rect width="280" x="530" height="41" y="321905" stroke="none"/>
<rect x="530" y="321905" fill="none" width="279" height="40" stroke="black"/>
<text fill="black" xml:space="preserve" x="571" y="321931" stroke="none">Invalid view - remove from diagram.</text>
<rect width="161" x="1130" height="41" y="321905" stroke="none"/>
</g>
<g stroke-width="0.1" font-family="'Segoe UI'" stroke-linecap="butt">
<rect fill="none" width="160" x="1130" height="40" y="321905"/>
<text xml:space="preserve" x="1114" y="321931" stroke="none">Invalid view - remove from diagram.</text>
</g>
<g fill="red" stroke-width="1.1" stroke-linecap="butt" stroke="red">
<line y2="321946" fill="none" x1="1019" x2="1019" y1="321985"/>
<text xml:space="preserve" x="922" y="321971" clip-path="url(#clipPath1)" stroke="none">Invalid view - remove from diagram.</text>
<line clip-path="url(#clipPath2)" fill="none" x1="272" x2="272" y1="321985" y2="321946"/>
<text xml:space="preserve" x="175" y="321971" clip-path="url(#clipPath3)" stroke="none">Invalid view - remove from diagram.</text>
<line clip-path="url(#clipPath2)" fill="none" x1="266" x2="266" y1="322345" y2="322306"/>
<text xml:space="preserve" x="169" y="322331" clip-path="url(#clipPath4)" stroke="none">Invalid view - remove from diagram.</text>
<line clip-path="url(#clipPath2)" fill="none" x1="730" x2="730" y1="321985" y2="23"/>
<line clip-path="url(#clipPath2)" fill="none" x1="730" x2="730" y1="23" y2="321905"/>
<text xml:space="preserve" x="665" y="69" clip-path="url(#clipPath5)" stroke="none">Invalid view - remove from diagram.</text>
<line clip-path="url(#clipPath2)" fill="none" x1="570" x2="570" y1="321985" y2="321946"/>
<text x="474" y="321970" clip-path="url(#clipPath6)" font-family="'Segoe UI'" stroke="none" xml:space="preserve">Invalid view - remove from diagram.</text>
<line clip-path="url(#clipPath2)" fill="none" x1="450" x2="450" y1="322106" y2="322265"/>
<text x="354" y="322191" clip-path="url(#clipPath7)" font-family="'Segoe UI'" stroke="none" xml:space="preserve">Invalid view - remove from diagram.</text>
</g>
</g>
</svg>
