<?xml version="1.0" encoding="utf-8"?>
<!-- Generator: Adobe Illustrator 21.0.2, SVG Export Plug-In . SVG Version: 6.00 Build 0)  -->
<svg version="1.1" id="Ebene_1" xmlns="http://www.w3.org/2000/svg" xmlns:xlink="http://www.w3.org/1999/xlink" x="0px" y="0px"
	 viewBox="0 0 1000 1000" style="enable-background:new 0 0 1000 1000;" xml:space="preserve">
<style type="text/css">
	.st0{fill:none;stroke:#000000;stroke-width:50;stroke-linejoin:round;stroke-miterlimit:10;}
</style>
<g>
	<polygon class="st0" points="122,694.2 779.5,36.7 885.9,36.1 963.6,113.9 963.6,220.8 306.1,878.3 306.1,771.4 229.4,693.7 	"/>
	<polygon points="122,694.2 779.5,36.7 885.9,36.1 963.6,113.9 963.6,220.8 306.1,878.3 306.1,771.4 229.4,693.7 	"/>
</g>
<path class="st0" d="M122.5,693.7"/>
<path class="st0" d="M306.1,878.3"/>
<polyline class="st0" points="122.5,693.7 36.4,963.9 306.1,878.3 "/>
<path class="st0" d="M79.3,828.6c60.5,2.3,97.2,35.6,100.4,89.6"/>
<polygon points="47,947 141,685 297,695 327,815 289,881 "/>
</svg>
